<svg xmlns="http://www.w3.org/2000/svg" viewBox="0 0 640 130" width="640" height="130" fill="#000">
  <rect x="120" y="120" width="400" height="7"/><rect x="150" y="116" width="340" height="4"/><path fill-rule="evenodd" d="M232 70 L408 70 L408 116 L232 116 Z M297 116 L297 98 Q297 80 320 80 Q343 80 343 98 L343 116 Z M248 116 L248 106 Q248 96 258 96 Q268 96 268 106 L268 116 Z M372 116 L372 106 Q372 96 382 96 Q392 96 392 106 L392 116 Z"/><rect x="227" y="66" width="186" height="4"/><rect x="292" y="58" width="56" height="12"/><path d="M305.3 58 C288.6 53 288 37 292.5 27 C298.9 14 313.6 10 320 8 C326.4 10 341.1 14 347.5 27 C352 37 351.4 53 334.7 58 Z"/><rect x="319.2" y="-3" width="1.6" height="11"/><circle cx="320" cy="-4.8" r="1.8"/><rect x="239" y="68.5" width="26" height="2"/><rect x="240" y="62" width="2" height="6.5"/><rect x="262" y="62" width="2" height="6.5"/><rect x="251" y="62" width="2" height="6.5"/><rect x="240.5" y="60" width="23" height="2.2"/><path d="M247.3 60 C242.1 58.7 241.9 54.5 243.3 51.9 C245.3 48.6 250 47.5 252 47 C254 47.5 258.7 48.6 260.7 51.9 C262.1 54.5 261.9 58.7 256.7 60 Z"/><rect x="251.4" y="41.5" width="1.2" height="5.5"/><circle cx="252" cy="40.2" r="1.3"/><rect x="375" y="68.5" width="26" height="2"/><rect x="376" y="62" width="2" height="6.5"/><rect x="398" y="62" width="2" height="6.5"/><rect x="387" y="62" width="2" height="6.5"/><rect x="376.5" y="60" width="23" height="2.2"/><path d="M383.3 60 C378.1 58.7 377.9 54.5 379.3 51.9 C381.3 48.6 386 47.5 388 47 C390 47.5 394.7 48.6 396.7 51.9 C398.1 54.5 397.9 58.7 392.7 60 Z"/><rect x="387.4" y="41.5" width="1.2" height="5.5"/><circle cx="388" cy="40.2" r="1.3"/><path d="M154.5 130 L157 46 L167 46 L169.5 130 Z"/><rect x="153.4" y="67" width="17.3" height="2.6"/><rect x="152.8" y="88" width="18.5" height="2.6"/><rect x="152.1" y="109" width="19.8" height="2.6"/><rect x="154" y="44" width="16" height="2.4"/><path d="M159 44 C155.6 43.1 155.4 40.2 156.4 38.4 C157.7 36.1 160.7 35.4 162 35 C163.3 35.4 166.3 36.1 167.6 38.4 C168.6 40.2 168.4 43.1 165 44 Z"/><rect x="161.4" y="29.5" width="1.2" height="5.5"/><circle cx="162" cy="28.2" r="1.3"/><path d="M189.5 130 L191.5 52 L200.5 52 L202.5 130 Z"/><rect x="187.8" y="78" width="16.3" height="2.6"/><rect x="187.2" y="104" width="17.7" height="2.6"/><rect x="188.5" y="50" width="15" height="2.4"/><path d="M193.2 50 C190 49.1 189.9 46.2 190.7 44.4 C191.9 42.1 194.8 41.4 196 41 C197.2 41.4 200.1 42.1 201.3 44.4 C202.2 46.2 202 49.1 198.8 50 Z"/><rect x="195.4" y="35.5" width="1.2" height="5.5"/><circle cx="196" cy="34.2" r="1.3"/><path d="M437.5 130 L439.5 52 L448.5 52 L450.5 130 Z"/><rect x="435.8" y="78" width="16.3" height="2.6"/><rect x="435.2" y="104" width="17.7" height="2.6"/><rect x="436.5" y="50" width="15" height="2.4"/><path d="M441.2 50 C438 49.1 437.9 46.2 438.7 44.4 C439.9 42.1 442.8 41.4 444 41 C445.2 41.4 448.1 42.1 449.3 44.4 C450.2 46.2 450 49.1 446.8 50 Z"/><rect x="443.4" y="35.5" width="1.2" height="5.5"/><circle cx="444" cy="34.2" r="1.3"/><path d="M470.5 130 L473 46 L483 46 L485.5 130 Z"/><rect x="469.4" y="67" width="17.3" height="2.6"/><rect x="468.8" y="88" width="18.5" height="2.6"/><rect x="468.1" y="109" width="19.8" height="2.6"/><rect x="470" y="44" width="16" height="2.4"/><path d="M475 44 C471.6 43.1 471.4 40.2 472.4 38.4 C473.7 36.1 476.7 35.4 478 35 C479.3 35.4 482.3 36.1 483.6 38.4 C484.6 40.2 484.4 43.1 481 44 Z"/><rect x="477.4" y="29.5" width="1.2" height="5.5"/><circle cx="478" cy="28.2" r="1.3"/><rect x="0" y="127" width="640" height="3"/>
</svg>
