<svg xmlns="http://www.w3.org/2000/svg" viewBox="0 0 640 130" width="640" height="130" fill="#000">
  <rect x="48" y="122" width="544" height="5"/><path fill-rule="evenodd" d="M60 84 L580 84 L580 122 L60 122 Z M69.2 122 L69.2 108.3 Q69.2 94.6 80 94.6 Q90.8 94.6 90.8 108.3 L90.8 122 Z M109.2 122 L109.2 108.3 Q109.2 94.6 120 94.6 Q130.8 94.6 130.8 108.3 L130.8 122 Z M149.2 122 L149.2 108.3 Q149.2 94.6 160 94.6 Q170.8 94.6 170.8 108.3 L170.8 122 Z M189.2 122 L189.2 108.3 Q189.2 94.6 200 94.6 Q210.8 94.6 210.8 108.3 L210.8 122 Z M229.2 122 L229.2 108.3 Q229.2 94.6 240 94.6 Q250.8 94.6 250.8 108.3 L250.8 122 Z M269.2 122 L269.2 108.3 Q269.2 94.6 280 94.6 Q290.8 94.6 290.8 108.3 L290.8 122 Z M309.2 122 L309.2 108.3 Q309.2 94.6 320 94.6 Q330.8 94.6 330.8 108.3 L330.8 122 Z M349.2 122 L349.2 108.3 Q349.2 94.6 360 94.6 Q370.8 94.6 370.8 108.3 L370.8 122 Z M389.2 122 L389.2 108.3 Q389.2 94.6 400 94.6 Q410.8 94.6 410.8 108.3 L410.8 122 Z M429.2 122 L429.2 108.3 Q429.2 94.6 440 94.6 Q450.8 94.6 450.8 108.3 L450.8 122 Z M469.2 122 L469.2 108.3 Q469.2 94.6 480 94.6 Q490.8 94.6 490.8 108.3 L490.8 122 Z M509.2 122 L509.2 108.3 Q509.2 94.6 520 94.6 Q530.8 94.6 530.8 108.3 L530.8 122 Z M549.2 122 L549.2 108.3 Q549.2 94.6 560 94.6 Q570.8 94.6 570.8 108.3 L570.8 122 Z"/><rect x="55" y="80" width="530" height="4"/><path fill-rule="evenodd" d="M150 60 L490 60 L490 80 L150 80 Z M162.1 80 L162.1 73 Q162.1 66 174.3 66 Q186.4 66 186.4 73 L186.4 80 Z M210.7 80 L210.7 73 Q210.7 66 222.9 66 Q235 66 235 73 L235 80 Z M259.3 80 L259.3 73 Q259.3 66 271.4 66 Q283.6 66 283.6 73 L283.6 80 Z M307.9 80 L307.9 73 Q307.9 66 320 66 Q332.1 66 332.1 73 L332.1 80 Z M356.4 80 L356.4 73 Q356.4 66 368.6 66 Q380.7 66 380.7 73 L380.7 80 Z M405 80 L405 73 Q405 66 417.1 66 Q429.3 66 429.3 73 L429.3 80 Z M453.6 80 L453.6 73 Q453.6 66 465.7 66 Q477.9 66 477.9 73 L477.9 80 Z"/><rect x="145" y="56" width="350" height="3.5"/><rect x="298" y="46" width="44" height="10"/><path d="M308.5 46 C295.5 42.8 295 32.6 298.5 26.2 C303.5 17.8 315 15.3 320 14 C325 15.3 336.5 17.8 341.5 26.2 C345 32.6 344.5 42.8 331.5 46 Z"/><rect x="319.2" y="4" width="1.6" height="10"/><circle cx="320" cy="2.2" r="1.8"/><rect x="192" y="58.5" width="28" height="2"/><rect x="193" y="52" width="2" height="6.5"/><rect x="217" y="52" width="2" height="6.5"/><rect x="205" y="52" width="2" height="6.5"/><rect x="193.5" y="50" width="25" height="2.2"/><path d="M201 50 C195.3 48.7 195.1 44.5 196.6 41.9 C198.8 38.6 203.8 37.5 206 37 C208.2 37.5 213.2 38.6 215.4 41.9 C216.9 44.5 216.7 48.7 211 50 Z"/><rect x="205.4" y="31.5" width="1.2" height="5.5"/><circle cx="206" cy="30.2" r="1.3"/><rect x="420" y="58.5" width="28" height="2"/><rect x="421" y="52" width="2" height="6.5"/><rect x="445" y="52" width="2" height="6.5"/><rect x="433" y="52" width="2" height="6.5"/><rect x="421.5" y="50" width="25" height="2.2"/><path d="M429 50 C423.3 48.7 423.1 44.5 424.6 41.9 C426.8 38.6 431.8 37.5 434 37 C436.2 37.5 441.2 38.6 443.4 41.9 C444.9 44.5 444.7 48.7 439 50 Z"/><rect x="433.4" y="31.5" width="1.2" height="5.5"/><circle cx="434" cy="30.2" r="1.3"/><path d="M66 130 L69 50 L79 50 L82 130 Z"/><rect x="65" y="76.7" width="18" height="2.6"/><rect x="64" y="103.3" width="20" height="2.6"/><rect x="66" y="48" width="16" height="2.4"/><path d="M71 48 C67.6 47.1 67.4 44.2 68.4 42.4 C69.7 40.1 72.7 39.4 74 39 C75.3 39.4 78.3 40.1 79.6 42.4 C80.6 44.2 80.4 47.1 77 48 Z"/><rect x="73.4" y="33.5" width="1.2" height="5.5"/><circle cx="74" cy="32.2" r="1.3"/><path d="M558 130 L561 50 L571 50 L574 130 Z"/><rect x="557" y="76.7" width="18" height="2.6"/><rect x="556" y="103.3" width="20" height="2.6"/><rect x="558" y="48" width="16" height="2.4"/><path d="M563 48 C559.6 47.1 559.4 44.2 560.4 42.4 C561.7 40.1 564.7 39.4 566 39 C567.3 39.4 570.3 40.1 571.6 42.4 C572.6 44.2 572.4 47.1 569 48 Z"/><rect x="565.4" y="33.5" width="1.2" height="5.5"/><circle cx="566" cy="32.2" r="1.3"/><path d="M226 130 L228 62 L236 62 L238 130 Z"/><rect x="224" y="96" width="16" height="2.6"/><rect x="225" y="60" width="14" height="2.4"/><path d="M229.4 60 C226.4 59.1 226.3 56.2 227.1 54.4 C228.2 52.1 230.9 51.4 232 51 C233.1 51.4 235.8 52.1 236.9 54.4 C237.7 56.2 237.6 59.1 234.6 60 Z"/><rect x="231.4" y="45.5" width="1.2" height="5.5"/><circle cx="232" cy="44.2" r="1.3"/><path d="M402 130 L404 62 L412 62 L414 130 Z"/><rect x="400" y="96" width="16" height="2.6"/><rect x="401" y="60" width="14" height="2.4"/><path d="M405.4 60 C402.4 59.1 402.3 56.2 403.1 54.4 C404.2 52.1 406.9 51.4 408 51 C409.1 51.4 411.8 52.1 412.9 54.4 C413.7 56.2 413.6 59.1 410.6 60 Z"/><rect x="407.4" y="45.5" width="1.2" height="5.5"/><circle cx="408" cy="44.2" r="1.3"/><rect x="0" y="127" width="640" height="3"/>
</svg>
