<svg xmlns="http://www.w3.org/2000/svg" viewBox="0 0 640 130" width="640" height="130" fill="#000">
  <path fill-rule="evenodd" d="M46 88 L594 88 L594 127 L46 127 Z M107 127 L107 116 Q107 105 120 105 Q133 105 133 116 L133 127 Z M167 127 L167 116 Q167 105 180 105 Q193 105 193 116 L193 127 Z M447 127 L447 116 Q447 105 460 105 Q473 105 473 116 L473 127 Z M507 127 L507 116 Q507 105 520 105 Q533 105 533 116 L533 127 Z"/><rect x="50" y="80" width="9" height="8"/><rect x="72" y="80" width="9" height="8"/><rect x="94" y="80" width="9" height="8"/><rect x="116" y="80" width="9" height="8"/><rect x="138" y="80" width="9" height="8"/><rect x="160" y="80" width="9" height="8"/><rect x="182" y="80" width="9" height="8"/><rect x="204" y="80" width="9" height="8"/><rect x="226" y="80" width="9" height="8"/><rect x="248" y="80" width="9" height="8"/><rect x="270" y="80" width="9" height="8"/><rect x="292" y="80" width="9" height="8"/><rect x="314" y="80" width="9" height="8"/><rect x="336" y="80" width="9" height="8"/><rect x="358" y="80" width="9" height="8"/><rect x="380" y="80" width="9" height="8"/><rect x="402" y="80" width="9" height="8"/><rect x="424" y="80" width="9" height="8"/><rect x="446" y="80" width="9" height="8"/><rect x="468" y="80" width="9" height="8"/><rect x="490" y="80" width="9" height="8"/><rect x="512" y="80" width="9" height="8"/><rect x="534" y="80" width="9" height="8"/><rect x="556" y="80" width="9" height="8"/><rect x="578" y="80" width="9" height="8"/><path fill-rule="evenodd" d="M252 52 L388 52 L388 127 L252 127 Z M295 127 L295 105 Q295 83 320 83 Q345 83 345 105 L345 127 Z"/><rect x="247" y="48" width="146" height="4.5"/><rect x="256" y="41" width="8" height="7"/><rect x="274" y="41" width="8" height="7"/><rect x="292" y="41" width="8" height="7"/><rect x="310" y="41" width="8" height="7"/><rect x="328" y="41" width="8" height="7"/><rect x="346" y="41" width="8" height="7"/><rect x="364" y="41" width="8" height="7"/><rect x="270" y="42.5" width="28" height="2"/><rect x="271" y="36" width="2" height="6.5"/><rect x="295" y="36" width="2" height="6.5"/><rect x="283" y="36" width="2" height="6.5"/><rect x="271.5" y="34" width="25" height="2.2"/><path d="M279 34 C273.3 32.7 273.1 28.5 274.6 25.9 C276.8 22.6 281.8 21.5 284 21 C286.2 21.5 291.2 22.6 293.4 25.9 C294.9 28.5 294.7 32.7 289 34 Z"/><rect x="283.4" y="15.5" width="1.2" height="5.5"/><circle cx="284" cy="14.2" r="1.3"/><rect x="342" y="42.5" width="28" height="2"/><rect x="343" y="36" width="2" height="6.5"/><rect x="367" y="36" width="2" height="6.5"/><rect x="355" y="36" width="2" height="6.5"/><rect x="343.5" y="34" width="25" height="2.2"/><path d="M351 34 C345.3 32.7 345.1 28.5 346.6 25.9 C348.8 22.6 353.8 21.5 356 21 C358.2 21.5 363.2 22.6 365.4 25.9 C366.9 28.5 366.7 32.7 361 34 Z"/><rect x="355.4" y="15.5" width="1.2" height="5.5"/><circle cx="356" cy="14.2" r="1.3"/><rect x="306" y="32" width="28" height="12"/><path d="M314 32 C307.3 30.1 307 24 308.8 20.2 C311.4 15.3 317.4 13.8 320 13 C322.6 13.8 328.6 15.3 331.2 20.2 C333 24 332.7 30.1 326 32 Z"/><rect x="319.2" y="2" width="1.6" height="12"/><path d="M321 3 L352 8 L321 13 Z"/><rect x="84" y="70" width="40" height="57"/><rect x="88" y="63" width="8" height="7"/><rect x="104" y="63" width="8" height="7"/><rect x="91" y="64.5" width="26" height="2"/><rect x="92" y="58" width="2" height="6.5"/><rect x="114" y="58" width="2" height="6.5"/><rect x="103" y="58" width="2" height="6.5"/><rect x="92.5" y="56" width="23" height="2.2"/><path d="M99.3 56 C94.1 54.8 93.9 51 95.3 48.6 C97.3 45.4 102 44.5 104 44 C106 44.5 110.7 45.4 112.7 48.6 C114.1 51 113.9 54.8 108.7 56 Z"/><rect x="103.4" y="38.5" width="1.2" height="5.5"/><circle cx="104" cy="37.2" r="1.3"/><rect x="516" y="70" width="40" height="57"/><rect x="520" y="63" width="8" height="7"/><rect x="536" y="63" width="8" height="7"/><rect x="523" y="64.5" width="26" height="2"/><rect x="524" y="58" width="2" height="6.5"/><rect x="546" y="58" width="2" height="6.5"/><rect x="535" y="58" width="2" height="6.5"/><rect x="524.5" y="56" width="23" height="2.2"/><path d="M531.3 56 C526.1 54.8 525.9 51 527.3 48.6 C529.3 45.4 534 44.5 536 44 C538 44.5 542.7 45.4 544.7 48.6 C546.1 51 545.9 54.8 540.7 56 Z"/><rect x="535.4" y="38.5" width="1.2" height="5.5"/><circle cx="536" cy="37.2" r="1.3"/><rect x="0" y="127" width="640" height="3"/>
</svg>
